# xmcd CD database file
#
# Track frame offsets:
#	150
#	15031
#	28113
#	40508
#	54661
#	69640
#	84605
#	97149
#	110592
#	124353
#	137330
#	152403
#	167864
#	181737
#	195907
#	208544
#	220254
#	233900
#	246439
#	258944
#	273987
#	284668
#	299293
#	308671
#	321450
#
# Disc length: 4787 seconds
#
# Revision: 0
# Processed by: cddbd v1.5.1PL2 Copyright (c) Steve Scherf et al.
# Submitted via: CDex 1.51
#
DISCID=6912b119
DTITLE=Various Artist - Café London [CD2]
DYEAR=2005
DGENRE=Blues
TTITLE0=Vera Lynn - The White Cliffs Of Dover 
TTITLE1=Edmundo Ros and His Rumba Band - The Wedding Samba
TTITLE2=Cyril Stapleton and Orchestra - Meet Mr. Callaghan
TTITLE3=Larry Adler - A Foggy Day In London Town
TTITLE4=Kenny Baker's Dozen - Keeping Out Of Mischief Now
TTITLE5=Ray Noble And Orchestra - Goodnight Sweetheart
TTITLE6=Eddie Calvert - Oh Mein Papa
TTITLE7=Victor Sylvester Orchestra - Tea For Two Five
TTITLE8=George Formby - Leaning On A Lamppost
TTITLE9=Joe Loss And Orchestra - Chattanooga Choo Choo
TTITLE10=Noel Coward - London Pride
TTITLE11=Stanley Black Orchestra - From Here To Eternity
TTITLE12=Frank Chacksfield Orchestra - Ebb Tide
TTITLE13=Charlie Kunz (With His Ballroom Orchestra) - Medley: My Foolish Heart Me And My Shadow C'est Si Bon
TTITLE14=Mantovani And His Orchestra - Dancing With Tears In My Eyes
TTITLE15=Winifred Atwell - The Black And White Rag
TTITLE16=Ambrose - The Continental
TTITLE17=Robert Farnon And His Orchestra - Yes! We Have No Bananas
TTITLE18=Ken Griffith - You Can't Be True Dear
TTITLE19=Al Bowlly - Sweet And Lovely
TTITLE20=Ron Goodwin and Orchestra - Skiffling Strings
TTITLE21=Vera Lynn - The London I Love
TTITLE22=Cyril Stapleton and Orchestra - Carnavilto
TTITLE23=Ted Heath Orchestra - With A Song In My Heart
TTITLE24=George Melachrino and Orchestra - Cole Porter Fantasy
EXTD=YEAR: 2005
EXTT0=
EXTT1=
EXTT2=
EXTT3=
EXTT4=
EXTT5=
EXTT6=
EXTT7=
EXTT8=
EXTT9=
EXTT10=
EXTT11=
EXTT12=
EXTT13=
EXTT14=
EXTT15=
EXTT16=
EXTT17=
EXTT18=
EXTT19=
EXTT20=
EXTT21=
EXTT22=
EXTT23=
EXTT24=
PLAYORDER=
